<?xml version="1.0" encoding="UTF-8" standalone="no"?>
<!DOCTYPE svg PUBLIC "-//W3C//DTD SVG 1.1//EN" "http://www.w3.org/Graphics/SVG/1.1/DTD/svg11.dtd">
<!-- Generated by graphviz version 2.40.1 (20161225.0304)
 -->
<!-- Title: finite_state_machine Pages: 1 -->
<svg width="124pt" height="230pt" viewBox="0.00 0.00 124.00 229.60" xmlns="http://www.w3.org/2000/svg" xmlns:xlink="http://www.w3.org/1999/xlink">
<g id="graph0" class="graph" transform="scale(1 1) rotate(0) translate(4 225.6)">
<title>finite_state_machine</title>
<polygon fill="#ffffff" stroke="transparent" points="-4,4 -4,-225.6 120,-225.6 120,4 -4,4"/>
<!-- c -->
<g id="node1" class="node">
<title>c</title>
<ellipse fill="none" stroke="#000000" cx="22" cy="-199.6" rx="18" ry="18"/>
<ellipse fill="none" stroke="#000000" cx="22" cy="-199.6" rx="22" ry="22"/>
<text text-anchor="middle" x="22" y="-195.4" font-family="Times,serif" font-size="14.00" fill="#000000">c</text>
</g>
<!-- a -->
<g id="node3" class="node">
<title>a</title>
<ellipse fill="none" stroke="#000000" cx="69" cy="-106.8" rx="18" ry="18"/>
<text text-anchor="middle" x="69" y="-102.6" font-family="Times,serif" font-size="14.00" fill="#000000">a</text>
</g>
<!-- c&#45;&gt;a -->
<g id="edge6" class="edge">
<title>c-&gt;a</title>
<path fill="none" stroke="#000000" d="M31.9675,-179.9195C38.9966,-166.0407 48.4762,-147.3237 56.0845,-132.3012"/>
<polygon fill="#000000" stroke="#000000" points="59.3736,-133.5533 60.7695,-123.0508 53.1289,-130.3905 59.3736,-133.5533"/>
<text text-anchor="middle" x="52.5" y="-147" font-family="Times,serif" font-size="14.00" fill="#000000">1</text>
</g>
<!-- b -->
<g id="node4" class="node">
<title>b</title>
<ellipse fill="none" stroke="#000000" cx="26" cy="-18" rx="18" ry="18"/>
<text text-anchor="middle" x="26" y="-13.8" font-family="Times,serif" font-size="14.00" fill="#000000">b</text>
</g>
<!-- c&#45;&gt;b -->
<g id="edge5" class="edge">
<title>c-&gt;b</title>
<path fill="none" stroke="#000000" d="M17.6388,-177.9351C13.706,-155.5932 8.9695,-119.748 12,-88.8 13.4164,-74.3357 16.4234,-58.444 19.2888,-45.3877"/>
<polygon fill="#000000" stroke="#000000" points="22.7083,-46.1346 21.5234,-35.6062 15.8841,-44.5756 22.7083,-46.1346"/>
<text text-anchor="middle" x="15.5" y="-102.6" font-family="Times,serif" font-size="14.00" fill="#000000">0</text>
</g>
<g id="node2" class="node">
<title/>
</g>
<!-- &#45;&gt;a -->
<g id="edge7" class="edge">
<title>-&gt;a</title>
<path fill="none" stroke="#000000" d="M85.0486,-181.2657C82.1628,-167.8754 78.2004,-149.49 74.935,-134.3384"/>
<polygon fill="#000000" stroke="#000000" points="78.3358,-133.5047 72.8074,-124.4666 71.4929,-134.9795 78.3358,-133.5047"/>
</g>
<!-- a&#45;&gt;a -->
<g id="edge2" class="edge">
<title>a-&gt;a</title>
<path fill="none" stroke="#000000" d="M85.2903,-114.4679C95.3892,-116.3169 105,-113.7609 105,-106.8 105,-102.3406 101.0557,-99.6891 95.5656,-98.8454"/>
<polygon fill="#000000" stroke="#000000" points="95.1887,-95.3544 85.2903,-99.1321 95.384,-102.3517 95.1887,-95.3544"/>
<text text-anchor="middle" x="108.5" y="-102.6" font-family="Times,serif" font-size="14.00" fill="#000000">1</text>
</g>
<!-- a&#45;&gt;b -->
<g id="edge1" class="edge">
<title>a-&gt;b</title>
<path fill="none" stroke="#000000" d="M61.1131,-90.5127C54.7885,-77.4515 45.7938,-58.8765 38.4916,-43.7966"/>
<polygon fill="#000000" stroke="#000000" points="41.4909,-41.9597 33.9825,-34.4848 35.1907,-45.0105 41.4909,-41.9597"/>
<text text-anchor="middle" x="54.5" y="-58.2" font-family="Times,serif" font-size="14.00" fill="#000000">0</text>
</g>
<!-- b&#45;&gt;c -->
<g id="edge4" class="edge">
<title>b-&gt;c</title>
<path fill="none" stroke="#000000" d="M25.6018,-36.0764C24.9284,-66.6489 23.5558,-128.9648 22.7131,-167.2252"/>
<polygon fill="#000000" stroke="#000000" points="19.2116,-167.2576 22.4905,-177.3323 26.2099,-167.4118 19.2116,-167.2576"/>
<text text-anchor="middle" x="27.5" y="-102.6" font-family="Times,serif" font-size="14.00" fill="#000000">1</text>
</g>
<!-- b&#45;&gt;b -->
<g id="edge3" class="edge">
<title>b-&gt;b</title>
<path fill="none" stroke="#000000" d="M42.2903,-25.6679C52.3892,-27.5169 62,-24.9609 62,-18 62,-13.5406 58.0557,-10.8891 52.5656,-10.0454"/>
<polygon fill="#000000" stroke="#000000" points="52.1887,-6.5544 42.2903,-10.3321 52.384,-13.5517 52.1887,-6.5544"/>
<text text-anchor="middle" x="65.5" y="-13.8" font-family="Times,serif" font-size="14.00" fill="#000000">0</text>
</g>
</g>
</svg>